<?xml version="1.0" standalone="no"?>
<!DOCTYPE svg PUBLIC "-//W3C//DTD SVG 20010904//EN"
 "http://www.w3.org/TR/2001/REC-SVG-20010904/DTD/svg10.dtd">
<svg version="1.0" xmlns="http://www.w3.org/2000/svg"
 width="512.000000pt" height="512.000000pt" viewBox="0 0 512.000000 512.000000"
 preserveAspectRatio="xMidYMid meet">
<metadata>
Created by potrace 1.14, written by Peter Selinger 2001-2017
</metadata>
<g transform="translate(0.000000,512.000000) scale(0.100000,-0.100000)"
fill="#000000" stroke="none">
<path d="M0 2560 l0 -2560 2560 0 2560 0 0 2560 0 2560 -2560 0 -2560 0 0
-2560z m2970 1545 l0 -155 -115 0 -115 0 0 155 0 155 115 0 115 0 0 -155z m0
-430 l0 -35 160 0 160 0 0 -160 0 -160 -40 0 -40 0 0 -75 0 -75 -40 0 -40 0 0
-80 0 -80 40 0 40 0 0 -40 0 -40 155 0 155 0 0 -40 0 -40 40 0 40 0 0 -230 0
-230 -40 0 -40 0 0 -80 0 -80 -40 0 -40 0 0 -40 0 -40 -40 0 -40 0 0 -40 c0
-39 -1 -40 -35 -40 -34 0 -35 1 -35 40 l0 40 -40 0 -40 0 0 40 0 40 -40 0 -40
0 0 40 0 40 -40 0 -40 0 0 40 0 40 -40 0 c-39 0 -40 1 -40 35 0 33 -2 35 -35
35 -34 0 -35 1 -35 40 l0 40 -40 0 -40 0 0 -75 0 -75 -40 0 -40 0 0 -40 0 -40
-40 0 -40 0 0 -80 0 -80 -75 0 -75 0 0 40 0 40 -40 0 -40 0 0 40 0 40 -40 0
-40 0 0 75 0 75 -40 0 -40 0 0 40 0 40 -40 0 -40 0 0 80 0 80 -40 0 -40 0 0
75 0 75 -35 0 -35 0 0 80 0 80 35 0 c34 0 35 1 35 40 l0 40 160 0 160 0 0 310
0 310 270 0 270 0 0 -35z m-1640 -1955 l0 -40 40 0 40 0 0 -40 0 -40 40 0 c39
0 40 -1 40 -35 0 -34 1 -35 40 -35 l40 0 0 -40 0 -40 40 0 40 0 0 -40 c0 -39
1 -40 35 -40 34 0 35 -1 35 -40 l0 -40 40 0 40 0 0 -40 0 -40 40 0 c39 0 40
-1 40 -35 0 -34 1 -35 40 -35 l40 0 0 -120 0 -120 -40 0 -40 0 0 -40 0 -40
-40 0 c-39 0 -40 -1 -40 -35 l0 -35 -75 0 -75 0 0 35 c0 34 -1 35 -40 35 l-40
0 0 40 0 40 -40 0 -40 0 0 40 0 40 -80 0 -80 0 0 40 0 40 -75 0 -75 0 0 40 0
40 -80 0 -80 0 0 35 c0 34 -1 35 -40 35 l-40 0 0 40 0 40 -40 0 -40 0 0 120 0
120 40 0 c39 0 40 1 40 35 0 34 1 35 40 35 l40 0 0 40 0 40 80 0 80 0 0 40 0
40 75 0 75 0 0 -40z m2740 -230 l0 -40 75 0 75 0 0 -40 0 -40 40 0 40 0 0
-115 0 -115 -40 0 -40 0 0 -40 c0 -39 -1 -40 -35 -40 -34 0 -35 -1 -35 -40 l0
-40 -40 0 -40 0 0 -40 0 -40 -40 0 -40 0 0 -40 0 -40 -40 0 c-39 0 -40 -1 -40
-35 l0 -35 -115 0 -115 0 0 -40 0 -40 -40 0 -40 0 0 -40 0 -40 -120 0 -120 0
0 115 0 115 40 0 40 0 0 40 0 40 -40 0 -40 0 0 40 0 40 160 0 160 0 0 80 0 80
40 0 40 0 0 75 0 75 35 0 c34 0 35 1 35 40 l0 40 40 0 40 0 0 40 0 40 40 0 40
0 0 40 0 40 40 0 40 0 0 -40z m-1100 -665 l0 -235 -195 0 -195 0 0 235 0 235
195 0 195 0 0 -235z"/>
<path d="M2820 4105 l0 -75 40 0 40 0 0 75 0 75 -40 0 -40 0 0 -75z"/>
<path d="M2740 825 l0 -155 40 0 40 0 0 155 0 155 -40 0 -40 0 0 -155z"/>
</g>
</svg>
